<svg xmlns="http://www.w3.org/2000/svg" xmlns:xlink="http://www.w3.org/1999/xlink" width="880" height="85">
  <style>
    .label { font-family: -apple-system, BlinkMacSystemFont, "Segoe UI", Helvetica, Arial, sans-serif; font-size: 11px; fill: #8b949e; }
    .icon-bg { fill: #161b22; }
  </style>
  
  <g transform="translate(0, 5)">
    <rect class="icon-bg" width="70" height="70" rx="6"/>
    <image x="10" y="8" width="50" height="50" xlink:href="https://raw.githubusercontent.com/marwin1991/profile-technology-icons/refs/heads/main/icons/go.png"/>
    <text class="label" x="35" y="68" text-anchor="middle">Go</text>
  </g>
  
  <g transform="translate(80, 5)">
    <rect class="icon-bg" width="70" height="70" rx="6"/>
    <image x="10" y="8" width="50" height="50" xlink:href="https://raw.githubusercontent.com/marwin1991/profile-technology-icons/refs/heads/main/icons/c%23.png"/>
    <text class="label" x="35" y="68" text-anchor="middle">C#</text>
  </g>
  
  <g transform="translate(160, 5)">
    <rect class="icon-bg" width="70" height="70" rx="6"/>
    <image x="10" y="8" width="50" height="50" xlink:href="https://raw.githubusercontent.com/marwin1991/profile-technology-icons/refs/heads/main/icons/unity.png"/>
    <text class="label" x="35" y="68" text-anchor="middle">Unity</text>
  </g>
  
  <g transform="translate(240, 5)">
    <rect class="icon-bg" width="70" height="70" rx="6"/>
    <image x="10" y="8" width="50" height="50" xlink:href="https://raw.githubusercontent.com/marwin1991/profile-technology-icons/refs/heads/main/icons/python.png"/>
    <text class="label" x="35" y="68" text-anchor="middle">Python</text>
  </g>
  
  <g transform="translate(320, 5)">
    <rect class="icon-bg" width="70" height="70" rx="6"/>
    <image x="10" y="8" width="50" height="50" xlink:href="https://raw.githubusercontent.com/marwin1991/profile-technology-icons/refs/heads/main/icons/php.png"/>
    <text class="label" x="35" y="68" text-anchor="middle">PHP</text>
  </g>
  
  <g transform="translate(400, 5)">
    <rect class="icon-bg" width="70" height="70" rx="6"/>
    <image x="10" y="8" width="50" height="50" xlink:href="https://raw.githubusercontent.com/marwin1991/profile-technology-icons/refs/heads/main/icons/html.png"/>
    <text class="label" x="35" y="68" text-anchor="middle">HTML</text>
  </g>
  
  <g transform="translate(480, 5)">
    <rect class="icon-bg" width="70" height="70" rx="6"/>
    <image x="10" y="8" width="50" height="50" xlink:href="https://raw.githubusercontent.com/marwin1991/profile-technology-icons/refs/heads/main/icons/css.png"/>
    <text class="label" x="35" y="68" text-anchor="middle">CSS</text>
  </g>
  
  <g transform="translate(560, 5)">
    <rect class="icon-bg" width="70" height="70" rx="6"/>
    <image x="10" y="8" width="50" height="50" xlink:href="https://raw.githubusercontent.com/marwin1991/profile-technology-icons/refs/heads/main/icons/typescript.png"/>
    <text class="label" x="35" y="68" text-anchor="middle">TypeScript</text>
  </g>
  
  <g transform="translate(640, 5)">
    <rect class="icon-bg" width="70" height="70" rx="6"/>
    <image x="10" y="8" width="50" height="50" xlink:href="https://raw.githubusercontent.com/marwin1991/profile-technology-icons/refs/heads/main/icons/docker.png"/>
    <text class="label" x="35" y="68" text-anchor="middle">Docker</text>
  </g>
  
  <g transform="translate(720, 5)">
    <rect class="icon-bg" width="70" height="70" rx="6"/>
    <image x="10" y="8" width="50" height="50" xlink:href="https://raw.githubusercontent.com/marwin1991/profile-technology-icons/refs/heads/main/icons/linux.png"/>
    <text class="label" x="35" y="68" text-anchor="middle">Linux</text>
  </g>
  
  <g transform="translate(800, 5)">
    <rect class="icon-bg" width="70" height="70" rx="6"/>
    <image x="10" y="8" width="50" height="50" xlink:href="https://raw.githubusercontent.com/marwin1991/profile-technology-icons/refs/heads/main/icons/arch_linux.png"/>
    <text class="label" x="35" y="68" text-anchor="middle">Arch</text>
  </g>
</svg>
